<svg width="515" height="571" viewBox="0 0 515 571" fill="none" xmlns="http://www.w3.org/2000/svg">
<path fill-rule="evenodd" clip-rule="evenodd" d="M125.871 299.421C124.311 300.929 124.235 304.025 124.009 306.025C125.006 301.236 129.669 296.788 132.538 293.052C135.328 289.415 137.871 285.573 140.033 281.521C140.081 281.433 144.784 272.355 141.158 273.361C131.093 276.108 132.46 293.577 125.871 299.421ZM141.599 225.325C143.316 229.511 152.293 249.447 158.569 245.33C163.564 242.053 158.398 229.63 155.699 226.434C151.201 221.118 146.116 216.399 141.945 210.774C141.225 215.859 139.524 220.315 141.599 225.325ZM281.546 265.623C285.978 266.124 290.429 266.602 294.887 266.777C289.813 266.196 284.831 265.496 279.717 265.442L281.546 265.623L281.546 265.623ZM34.7867 283.905C34.4947 281.411 40.4862 278.919 41.988 277.988C46.1057 275.433 50.4177 272.522 52.1904 268.161C54.1816 264.899 45.4036 264.529 43.0127 263.437C41.3364 262.672 37.2977 260.523 36.8815 258.471C35.9909 254.076 42.7322 253.627 45.7682 253.077C50.2151 252.273 52.4718 252.365 48.7375 249.488C44.7227 246.396 35.0377 244.061 35.7223 237.153C36.3063 231.269 46.3802 231.449 50.3616 231.585C57.8647 231.837 63.8908 234.542 69.8125 238.991C71.1936 240.027 79.6847 245.839 79.6771 243.352C79.0309 237.747 72.4921 235.013 71.0834 229.673C70.2831 226.638 70.865 224.172 69.6483 221.067C68.4477 218.003 65.5735 213.217 68.3242 210.052C70.0709 208.044 72.8572 208.378 74.7017 209.629C79.2854 212.308 81.7738 216.331 85.4756 219.968C88.1854 222.629 91.9693 222.912 94.0453 226.349C97.1516 231.646 100.136 237.469 103.762 242.6C104.899 244.208 110.336 251.271 111.841 247.365C112.689 245.165 106.726 239.417 105.81 238.277C103.623 235.552 101.153 233.114 100.537 229.496C100.183 227.423 101.139 225.552 100.85 223.935C99.9948 219.156 95.1005 214.443 93.6283 209.718C92.3077 205.478 89.4318 194.879 92.1436 190.9C95.856 185.451 100.283 193.424 102.684 196.468C105.342 199.84 107.558 203.119 110.747 205.822C113.561 208.21 115.462 210.519 116.958 214.055C119.724 220.587 120.911 227.398 122.774 233.995C122.763 233.974 122.753 233.952 122.744 233.93C123.898 237.743 125.867 241.942 128.849 244.73C133.85 249.404 133.1 245.259 131.322 240.481C128.642 233.276 124.842 226.491 122.136 219.314C121.172 216.757 120.339 214.019 120.841 211.242C121.177 209.379 122.727 208.227 123.119 206.913C124.488 202.348 117.211 173.013 127.253 174.018C132.675 174.56 132.779 187.013 133.674 190.526C135.102 196.137 135.317 200.767 139.691 204.795C139.798 202.486 142.034 201.436 142.264 199.46C142.536 197.11 140.695 194.501 139.865 192.427C137.585 186.727 135.665 180.793 134.883 174.709C132.5 156.143 146.945 173.551 151.365 179.645C152.212 180.814 153.312 182.29 154.293 183.606C156.87 187.053 158.064 186.85 161.142 189.11C166.379 192.955 166.91 204.298 167.34 210.318C167.475 212.175 170.343 241.639 176.026 235.782C178.892 232.829 175.652 219.64 174.508 215.737C172.748 209.737 166.473 200.462 168.84 194.125C169.584 192.135 171.38 191.693 172.155 189.937C173.971 185.838 171.421 179.21 171.433 174.922C171.459 166.196 177.44 161.525 180.836 172.302C182.179 176.567 183.324 179.17 185.473 183.136C187.924 187.661 186.521 192.614 188.09 197.147C189.388 200.893 189.932 197.671 192.811 200.817C195.2 203.431 193.993 210.046 193.528 213.264C192.882 217.733 187.753 235.624 193.894 237.34C199.491 238.904 200.9 226.865 201.08 223.446C201.533 214.895 197.858 207.564 195.143 199.734C193.82 195.918 192.128 191.369 192.078 187.276C192.036 183.688 193.804 181.452 195.063 178.34C196.528 174.716 201.98 157.716 208.493 165.38C212.869 170.53 208.45 179.451 212.122 184.862C213.82 180.555 214.137 168.246 220.885 167.919C227.4 167.604 227.085 181.058 227.471 185.646C227.707 188.461 225.749 204.097 228.466 206.565C231.304 209.14 233.506 205.054 234.977 202.895C237.495 199.205 258.719 164.816 264.193 170.632C268.439 175.141 256.208 184.226 257.28 188.096C257.673 189.519 259.227 188.874 260.389 189.662C264.648 192.553 264.867 195.166 261.469 199.283C273.522 204.35 257.13 211.489 251.779 214.051C248.134 215.796 232.372 222.964 237.281 229.563C238.932 231.782 245.233 231.639 247.67 233.001C252.37 235.629 251.882 240.558 247.093 242.813C243.8 244.366 239.444 244.388 235.897 243.927C233.861 243.664 228.537 241.443 226.771 242.662C233.056 248.755 226.238 249.113 220.276 249.701C215.817 250.141 204.259 250.779 202.694 256.583C209.532 257.748 216.628 257.053 223.514 257.732C231.053 258.478 238.464 258.812 246.311 258.809C261.191 258.801 276.745 259.445 291.485 261.115C298.695 261.931 305.989 262.293 313.234 262.676C315.847 262.813 329.832 261.207 329.525 266.443C329.109 273.523 309.983 267.095 305.845 268.243C278.903 266.303 251.843 265.916 225.019 263.314C227.161 264.476 231.213 269.71 228.617 272.104C230.553 272.887 234.379 273.22 235.503 275.19C237.987 279.551 233.521 277.813 232.42 279.293C230.541 281.825 236.296 284.03 238.309 285.256C247.693 290.964 256.211 298.907 264.385 306.233C268.87 310.253 276.925 325.666 265.836 326.58C260.302 327.038 253.749 321.003 250.064 317.641C247.738 315.521 242.646 308.292 239.183 307.885C237.942 311.78 240.865 320.941 241.364 324.76C242.423 332.835 242.258 338.792 236.568 345.165C223.05 360.307 224.441 326.733 221.619 327.35C219.634 327.784 218.179 343.221 217.896 345.171C217.271 349.494 214.24 361.517 207.675 360.385C202.167 359.435 202.789 348.17 202.505 344.35C202.266 341.147 201.019 337.667 201.142 334.085C201.242 331.138 202.473 328.306 202.627 325.443C202.788 322.466 200.85 320.313 200.987 316.951C201.139 313.177 202.295 309.013 202.808 305.21C203.665 298.855 205.194 290.185 200.615 284.681C193.367 293.818 196.55 308.33 196.04 319.083C195.784 324.461 195.754 331.068 190.799 334.193C188.808 335.448 190.25 333.403 187.906 335.41C187.38 335.86 186.997 336.803 186.629 337.384C183.998 341.552 181.945 346.02 179.428 350.246C177.868 352.869 173.533 361.966 169.659 361.799C162.634 361.496 168.348 337.764 168.951 333.155C169.409 329.67 170.488 326.013 170.776 322.577C171.042 319.424 169.687 316.896 170.924 313.551C172.525 309.219 175.516 305.332 177.588 301.225C180.374 295.701 181.81 290.204 182.663 284.115C183.017 281.594 184.174 275.777 181.451 274.519C177.075 272.501 175.628 282 174.939 284.407C172.902 291.538 172.682 299.927 168.677 307.235C164.537 314.796 167.19 323.542 164.312 331.454C163.272 334.312 162.257 335.484 159.82 337.134C157.11 338.972 155.759 339.775 153.735 343.113C151.9 346.138 143.863 361.565 139.359 355.188C137.898 353.119 139.763 349.84 140.358 347.822C141.669 343.374 142.734 338.843 144.153 334.428C145.054 331.625 146.756 328.628 146.791 325.619C146.825 322.765 145.712 320.988 146.871 318.012C148.431 314.004 152.835 310.074 153.611 305.964C154.353 302.046 153.909 297.901 155.112 293.774C156.071 290.491 163.75 274.176 161.463 272.511C156.817 269.123 150.835 290.208 150.347 291.803C147.236 301.974 145.439 313.224 141.944 323.358C140.769 326.764 138.565 328.093 136.751 330.487C134.342 333.667 133.299 338.488 131.097 341.967C129.343 344.739 124.752 351.989 122.021 346.885C120.046 343.198 123.072 335.372 123.648 331.399C124.302 326.908 124.618 322.43 125.782 318.031C126.032 317.084 126.912 315.333 126.868 314.408C126.741 311.846 123.89 310.557 123.842 307.582C123.755 310.566 122.992 312.82 120.928 314.89C120.39 315.432 118.769 315.88 118.003 316.466C115.689 318.236 113.939 321.312 112.104 323.575C109.524 326.75 94.5039 340.699 97.0029 328.186C98.0713 322.838 100.06 317.624 102.202 312.636C103.883 308.716 106.739 304.246 107.209 299.979C107.696 295.556 107.129 294.078 110.181 290.034C113.319 285.879 118.606 280.893 118.894 275.409C119.476 264.237 103.444 287.112 101.877 289.686C98.7119 294.883 94.9802 300.188 89.7447 303.468C83.9077 307.127 77.7016 308.762 72.4303 313.492C70.0809 315.602 62.9365 323.079 59.5175 319.344C56.15 315.666 64.1622 307.325 65.9194 304.737C67.7351 302.063 70.1523 299.384 71.6748 296.588C73.0554 294.049 73.312 291.3 74.5051 288.672C77.8848 281.217 85.147 279.349 90.3294 273.76C93.0652 270.808 93.325 268.339 88.3192 269.241C85.6164 269.725 82.9184 272.175 80.4868 273.513C76.83 275.528 73 277.277 69.2571 279.131C64.2047 281.631 36.1614 295.999 34.7867 283.905Z" fill="#89B99A"/>
<path fill-rule="evenodd" clip-rule="evenodd" d="M385.663 434.318C371.157 401.731 350.436 370.839 330.473 341.39C336.985 343.883 345.956 343.326 352.355 340.892C359.546 338.159 363.601 332.568 367.05 325.987C367.54 325.053 371.104 315.283 372.932 316.009C376.297 317.347 375.115 339.547 375.222 342.285C375.602 352.059 376.729 361.709 377.952 371.412C380.591 392.324 383.629 413.334 385.663 434.318ZM321.046 322.182C316.117 322.043 313.101 314.753 310.299 310.866C315.604 311.183 338.77 307.17 340.934 312.822C344.448 322.015 325.538 322.298 321.046 322.182ZM227.482 144.309C227.173 147.23 226.06 158.507 221.847 154.56C218.997 151.887 218.363 141.113 217.728 137.765C216.431 130.943 214.24 122.48 215.272 115.518C217.228 102.34 225.02 112.232 226.303 119.491C227.72 127.494 228.32 136.195 227.482 144.309ZM256.582 205.755C262.698 202.714 259.722 209.223 257.239 212.223C250.259 220.664 249.945 210.057 256.582 205.755ZM246.667 173.507C246.096 166.818 247.58 157.963 250.075 151.868C252.034 147.08 257.198 142.95 259.465 149.539C261.348 155.008 255.452 168.315 252.525 173.225C250.146 177.217 247.092 180.508 246.667 173.507ZM221.449 173.049C221.283 185.762 209.858 189.294 211.638 174.936C212.728 166.152 220.756 160.377 221.449 173.049ZM237.15 251.315C236.972 256.579 224.177 273.796 224.381 263.619C224.439 260.717 237.032 246.542 237.15 251.315ZM206.665 230.49C202.663 232.557 191.532 239.685 187.786 237.65C181.8 234.398 189.661 227.715 192.624 226.089C195.86 224.311 204.672 220.047 208.788 221.097C216.337 223.029 210.812 228.115 206.665 230.49ZM157.644 149.534C147.928 152.589 145.746 141.159 144.387 134.328C143.499 129.86 139.743 120.329 144.934 117.715C154.264 113.009 161.237 142.628 157.644 149.534ZM188.42 153.892C187.435 149.301 186.774 144.645 185.82 140.05C185.251 137.316 181.829 127.551 182.571 125.383C184.921 118.506 190.259 122.583 193.056 128.071C195.925 133.706 198.381 145.111 197.424 151.156C196.536 156.763 190.626 162.797 188.42 153.892ZM175.839 105.392C174.156 97.4086 180.089 91.4221 185.304 100.647C191.205 111.08 179.759 120.362 175.839 105.392ZM175.757 243.564C175.414 250.68 150.366 258.984 145.264 255.187C138.547 250.189 153.739 246.294 158.024 244.577C161.644 243.13 175.553 235.348 175.757 243.564ZM134.27 228.809C128.012 229.923 121.534 231.688 115.186 231.93C106.467 232.259 107.017 227.437 113.954 222.998C120.017 219.119 130.643 219.086 137.621 217.064C143.195 215.448 159.963 204.695 163.469 208.883C171.369 218.321 140.184 227.701 134.27 228.809ZM133.172 256.564C132.465 266.214 106.668 266.922 100.915 266.922C105.006 264.579 132.739 243.12 133.172 256.564ZM89.7427 203.272C72.5315 200.991 91.1208 190.128 97.1701 188.38C101.561 187.108 111.872 184.34 115.82 188.3C126.181 198.692 94.1677 203.88 89.7427 203.272ZM95.174 168.288C96.1583 162.36 125.785 156.206 126.87 161.828C127.724 166.254 95.3172 180.945 95.174 168.288ZM135.807 179.569C147.979 172.881 162.689 181.748 144.702 189.12C141.172 190.565 131.919 194.494 128.468 191.392C123.594 187.013 132.594 181.219 135.807 179.569ZM447.732 236.894C445.399 231.61 442.019 224.215 436.872 228.474C434.873 230.126 432.244 237.589 430.73 240.34C425.425 249.966 419.734 260.737 409.979 266.572C404.14 270.064 384.535 274.697 390.506 262.87C395.597 252.78 409.953 244.818 418.808 238.008C422.913 234.85 432.545 228.488 435.006 223.562C436.881 219.805 434.202 210.268 427.56 211.706C424.546 212.359 423.324 220.865 422.016 223.192C419.947 226.866 416.667 229.582 413.714 232.514C409.035 237.165 403.882 244.15 397.09 245.888C388.921 247.981 386.942 243.121 391.694 236.438C396.342 229.908 405.74 226.335 411.782 221.195C414.787 218.636 424.191 211.211 422.524 206.777C418.891 197.122 411.22 209.964 408.693 212.479C406.713 214.445 394.616 227.208 391.527 224.237C387.814 220.667 398.091 208.779 400.021 206.213C404.091 200.798 405.59 201.272 401.46 197.757C399.101 195.746 393.972 193.715 391.132 193.837C384.166 194.134 376.51 199.783 369.261 200.766C366.26 201.174 356.288 200.032 354.635 204.402C352.089 211.13 380.5 230.661 364.298 232.869C351.776 234.569 342.143 214.479 331.316 221.284C314.204 232.042 338.704 242.035 348.148 245.547C352.383 247.124 366.649 249.035 363.8 256.519C361.481 262.604 349.747 260.053 345.247 258.833C336.72 256.525 329.287 251.551 321.489 247.631C319.385 246.576 311.063 240.936 308.325 241.703C304.403 242.808 298.371 257.108 300.227 260.803C302.516 265.354 317.565 265.331 322.592 265.938C331.087 266.96 341.557 267.683 348.288 273.704C355.72 280.35 345.729 280.285 340.281 279.509C328.526 277.83 316.887 272.463 305.542 269.057C301.585 267.866 295.789 265.122 291.725 265.278C285.572 265.517 286.809 266.064 288.815 271.27C293.29 282.89 298.82 284.693 311.051 286.769C316.63 287.712 341.527 286.905 342.72 294.594C336.212 298.753 321.821 294.706 314.704 293.902C309.497 293.311 300.926 293.679 296.641 290.71C290.807 286.659 284.267 273.057 280.25 267.461C273.123 257.534 266.119 247.664 258.165 238.355C267.619 240.663 276.297 244.588 286.245 243.147C297.121 241.569 307.997 235.478 310.69 224.217C311.676 220.097 311.403 215.74 311.516 211.546C311.55 210.206 311.75 208.844 311.721 207.501C311.596 201.663 312.261 199.83 307.886 203.615C302.908 207.922 298.71 218.431 290.758 219.677C281.954 221.059 287.193 215.078 291.053 211.665C300.587 203.236 310.81 196.093 313.592 182.494C315.109 175.077 315.485 166.811 314.869 159.204C314.275 151.892 312.957 151.983 309.949 157.627C303.423 169.87 294.173 179.574 282.414 187.031C280.161 188.462 275.073 192.004 272.138 189.425C269.481 187.093 271.941 183.419 273.008 180.565C275.361 174.258 278.422 168.499 281.469 162.515C285.48 154.631 292.145 144.119 293.244 135.31C293.959 129.59 289.557 126.668 285.81 122.67C281.427 117.992 277.565 113.088 274.358 107.525C272.122 103.651 269.862 97.9455 266.192 95.1822C260.496 90.891 261.4 95.6322 261.402 100.285C261.405 104.002 263.14 140.882 254.702 138.162C246.328 135.467 253.306 101.607 252.86 93.9798C252.267 83.8747 238.322 83.8622 230.144 81.22C225.832 79.8242 221.843 78.9231 217.824 76.8842C216.302 76.1123 214.772 73.2505 212.914 73.884C208.694 75.3195 223.503 91.8909 218.748 96.776C210.721 105.024 205.845 80.6674 204.225 76.1527C202.865 72.3556 201.231 67.9045 199.132 64.5136C195.888 59.2768 195.269 60.4025 189.626 61.4933C183.983 62.5842 170.905 61.1513 166.408 64.3682C162.059 67.48 166.913 70.5565 169.372 74.0192C171.701 77.2961 179.204 88.3761 171.819 89.7895C169.152 90.3003 160.504 81.7164 158.224 79.902C153.383 76.0473 154.423 76.9193 149.974 77.5871C144.803 78.36 138.964 79.4315 133.942 80.6714C127.643 82.2277 126.092 83.1085 130.223 87.9208C135.068 93.559 142.773 97.4276 144.686 104.999C145.656 108.283 144.464 111.732 140.472 111.401C136.212 111.05 134.85 105.051 133.52 101.778C131.835 97.6336 128.858 87.9843 123.892 86.6589C120.789 85.8302 116.521 89.2566 113.716 90.3765C112.056 91.0384 104.733 92.4602 103.943 94.5991C103.077 96.948 110.766 102.984 112.737 105.775C117.767 112.893 123 121.591 124.368 129.696C124.754 142.745 111.385 125.616 109.42 121.476C107.239 116.885 101.079 93.6559 93.3619 95.1849C91.2605 95.6018 89.5093 100.451 87.679 101.914C85.4367 103.706 82.7315 104.249 80.1538 105.245C76.3324 106.722 72.5082 108.198 68.8148 109.929C67.6735 110.464 64.5585 112.038 63.9327 112.403C63.4614 112.68 62.5091 112.373 61.9352 112.722C58.0145 115.111 55.7625 120.503 52.104 123.518C50.4624 124.87 43.4181 128.311 43.6969 130.484C43.9506 132.464 75.412 137.104 80.0959 138.097C83.6578 138.851 98.8422 139.713 100.342 143.416C101.807 147.037 98.6315 147.947 95.545 148.794C87.8855 150.895 78.5193 150.646 70.6151 151.269C65.0314 151.709 42.4224 150.888 38.9732 156.056C35.4122 161.392 38.686 165.609 42.8031 166.796C47.3096 168.099 54.1303 166.815 58.6805 166.61C62.3866 166.443 86.2821 162.965 86.9504 168.463C87.6763 174.445 59.3069 176.602 56.4729 177.073C51.0572 177.971 42.1296 177.347 37.2066 179.599C32.7944 181.622 34.3247 182.058 35.0895 186.17C37.7302 200.381 39.419 197.821 51.9353 195.922C56.7269 195.194 62.9401 193.662 67.1471 196.666C72.1744 200.249 71.507 204.052 66.4809 206.219C63.0272 207.711 56.1498 207.464 52.4299 207.637C48.0815 207.841 43.7167 207.63 39.3846 207.251C38.1112 207.14 32.637 205.666 31.3442 206.365C26.2656 209.109 36.1306 226.99 41.0377 228.133C43.4195 228.689 47.503 227.429 49.9441 227.202C58.4761 226.398 67.0753 226.374 75.6308 225.653C80.4486 225.248 103.241 220.956 98.1393 232.042C95.3197 238.167 78.9794 239.781 73.4853 241.068C68.1991 242.307 62.9179 243.355 57.5592 244.224C52.5527 245.036 49.7634 244.225 52.4799 249.947C55.2455 255.77 73.2915 274.484 79.5293 274.563C84.6475 274.625 82.9933 272.091 88.3534 276.041C90.3203 277.494 92.2377 279.754 93.8912 281.547C100.243 288.419 106.52 298.049 116.071 300.739C136.483 306.491 167.601 281.483 182.291 269.889C185.21 267.587 196.639 256.006 201.319 259.308C206.238 262.777 196.039 273.637 194.02 275.716C182.774 287.307 169.114 298.15 153.654 303.231C149.535 304.583 138.314 305.162 134.271 307.871C130.261 310.554 133.958 311.911 137.639 314.894C145.49 321.249 155.908 330.511 166.562 328.143C180.588 325.023 189.285 311.487 197.986 301.048C202.813 295.259 225.454 267.896 223.447 290.907C222.445 302.362 213.904 314.745 205.331 321.844C203.729 323.169 193.841 326.937 193.928 328.073C194.063 329.799 199.641 331.085 200.65 331.408C210.438 334.547 240.183 340.444 245.665 327.98C249.427 319.428 247.299 304.96 246.934 295.951C246.819 293.151 245.325 288.526 249.377 288.039C254.568 287.414 257.171 305.598 257.274 308.449C257.486 314.311 256.02 320.252 253.24 326.002C252.018 328.529 249.147 330.61 252.551 331.36C253.785 331.63 261.426 325.668 262.63 324.666C268.761 319.543 269.769 313.191 270.056 305.626C270.821 285.209 263.336 264.493 254.025 246.531C265.806 261.445 276.938 276.78 287.622 292.502C290.292 296.43 291.983 301.08 294.624 304.878C298.436 310.353 303.338 314.984 307.29 320.818C305.983 320.554 294.854 316.345 294.215 319.428C293.635 322.233 302.898 327.582 304.781 328.828C313.255 334.449 316.733 335.21 322.916 344.482C338.302 367.562 352.1 391.276 365.514 415.534C372.07 427.39 379.049 439.122 384.632 451.478C387.433 457.675 389.528 464.203 391.482 470.71C392.825 475.184 393.764 488.384 399.138 490.306C405.384 492.543 404.511 485.336 403.538 481.884C401.343 474.104 399.93 466.6 398.613 458.575C396.473 445.522 395.192 432.345 392.729 419.334C389.655 403.098 387.41 386.812 385.169 370.448C383.713 359.827 382.624 349.066 382.07 338.354C381.69 330.998 382.73 323.263 381.488 315.969C388.384 323.54 385.694 335.724 398.246 337.853C407.946 339.5 415.782 332.311 422.057 325.903C427.173 320.678 434.568 312.747 436.189 305.378C438.121 296.584 430.039 302.212 424.294 303.591C420.586 304.483 410.141 309.196 407.526 305.508C403.87 300.347 419.202 295.624 422.226 294.096C428.88 290.737 436.3 286.589 441.643 281.232C443.754 279.114 454.025 254.869 445.032 257.413C443.892 257.735 442.017 261.081 441.01 262.223C436.338 267.52 431.163 272.204 425.643 276.595C419.626 281.378 406.403 292.726 397.515 289.109C402.335 278.236 418.449 273.911 427.575 267.371C433.439 263.17 438.628 258.403 442.477 252.231C444.39 249.16 449.339 240.518 447.732 236.894Z" fill="#02362C"/>
</svg>
